<svg xmlns="http://www.w3.org/2000/svg" xmlns:xlink="http://www.w3.org/1999/xlink" width="500" zoomAndPan="magnify" viewBox="0 0 375 374.999991" height="500" preserveAspectRatio="xMidYMid meet" version="1.0"><defs><clipPath id="907b25e917"><path d="M 29.230469 29.230469 L 345.730469 29.230469 L 345.730469 345.730469 L 29.230469 345.730469 Z M 29.230469 29.230469 " clip-rule="nonzero"/></clipPath></defs><g clip-path="url(#907b25e917)"><path fill="#010101" d="M 340.546875 313.636719 L 333.140625 313.636719 L 333.140625 296.355469 C 333.140625 293.390625 331.164062 291.417969 328.203125 291.417969 L 318.328125 291.417969 L 318.328125 276.109375 C 318.328125 273.148438 316.351562 271.171875 313.390625 271.171875 L 312.894531 271.171875 L 312.894531 174.890625 L 313.390625 174.890625 C 316.351562 174.890625 318.328125 172.914062 318.328125 169.953125 L 318.328125 154.644531 L 340.546875 154.644531 C 343.507812 154.644531 345.484375 152.671875 345.484375 149.707031 L 345.484375 127.980469 C 345.484375 126.5 344.496094 124.527344 343.015625 123.539062 L 189.949219 30.21875 C 188.46875 29.230469 186.492188 29.230469 185.011719 30.21875 L 31.945312 123.539062 C 30.464844 124.527344 29.476562 126.007812 29.476562 127.980469 L 29.476562 149.707031 C 29.476562 152.671875 31.453125 154.644531 34.414062 154.644531 L 56.632812 154.644531 L 56.632812 169.953125 C 56.632812 172.914062 58.609375 174.890625 61.570312 174.890625 L 62.066406 174.890625 L 62.066406 271.667969 C 59.101562 271.667969 57.128906 273.640625 57.128906 276.605469 L 57.128906 291.910156 L 46.757812 291.910156 C 43.796875 291.910156 41.820312 293.886719 41.820312 296.847656 L 41.820312 313.636719 L 34.414062 313.636719 C 31.453125 313.636719 29.476562 315.609375 29.476562 318.574219 L 29.476562 340.792969 C 29.476562 343.753906 31.453125 345.730469 34.414062 345.730469 L 340.546875 345.730469 C 343.507812 345.730469 345.484375 343.753906 345.484375 340.792969 L 345.484375 318.574219 C 345.484375 316.105469 343.507812 313.636719 340.546875 313.636719 Z M 263.023438 291.417969 L 263.023438 276.109375 C 263.023438 273.148438 261.050781 271.171875 258.085938 271.171875 L 257.59375 271.171875 L 257.59375 174.890625 L 258.085938 174.890625 C 261.050781 174.890625 263.023438 172.914062 263.023438 169.953125 L 263.023438 154.644531 L 276.851562 154.644531 L 276.851562 169.953125 C 276.851562 172.914062 278.824219 174.890625 281.789062 174.890625 L 282.28125 174.890625 L 282.28125 271.667969 L 281.789062 271.667969 C 278.824219 271.667969 276.851562 273.640625 276.851562 276.605469 L 276.851562 291.910156 L 263.023438 291.910156 Z M 143.042969 165.015625 L 121.316406 165.015625 L 121.316406 154.644531 L 143.042969 154.644531 Z M 127.242188 174.890625 L 138.105469 174.890625 L 138.105469 271.667969 L 127.242188 271.667969 Z M 143.042969 281.046875 L 143.042969 291.417969 L 121.316406 291.417969 L 121.316406 281.046875 Z M 147.980469 271.171875 L 147.484375 174.394531 L 147.980469 174.394531 C 150.941406 174.394531 152.917969 172.421875 152.917969 169.457031 L 152.917969 154.152344 L 166.742188 154.152344 L 166.742188 169.457031 C 166.742188 172.421875 168.71875 174.394531 171.679688 174.394531 L 172.171875 174.394531 L 172.171875 271.171875 L 171.679688 271.171875 C 168.71875 271.171875 166.742188 273.148438 166.742188 276.109375 L 166.742188 291.417969 L 152.917969 291.417969 L 152.917969 276.109375 C 152.917969 273.640625 150.941406 271.171875 147.980469 271.171875 Z M 198.34375 281.046875 L 198.34375 291.417969 L 176.617188 291.417969 L 176.617188 281.046875 Z M 192.910156 271.171875 L 182.046875 271.171875 L 182.046875 174.890625 L 192.910156 174.890625 Z M 198.34375 165.015625 L 176.617188 165.015625 L 176.617188 154.644531 L 198.34375 154.644531 Z M 203.28125 271.171875 L 202.785156 174.394531 L 203.28125 174.394531 C 206.242188 174.394531 208.21875 172.421875 208.21875 169.457031 L 208.21875 154.152344 L 222.042969 154.152344 L 222.042969 169.457031 C 222.042969 172.421875 224.019531 174.394531 226.980469 174.394531 L 227.472656 174.394531 L 227.472656 271.171875 L 226.980469 271.171875 C 224.019531 271.171875 222.042969 273.148438 222.042969 276.109375 L 222.042969 291.417969 L 208.21875 291.417969 L 208.21875 276.109375 C 208.21875 273.640625 205.75 271.171875 203.28125 271.171875 Z M 253.148438 281.046875 L 253.148438 291.417969 L 231.425781 291.417969 L 231.425781 281.046875 Z M 247.71875 271.171875 L 236.855469 271.171875 L 236.855469 174.890625 L 247.71875 174.890625 Z M 253.148438 165.015625 L 231.425781 165.015625 L 231.425781 154.644531 L 253.148438 154.644531 Z M 307.957031 281.046875 L 307.957031 291.417969 L 286.230469 291.417969 L 286.230469 281.046875 Z M 303.019531 271.171875 L 292.15625 271.171875 L 292.15625 174.890625 L 303.019531 174.890625 Z M 307.957031 165.015625 L 286.230469 165.015625 L 286.230469 154.644531 L 307.957031 154.644531 Z M 39.351562 130.449219 L 187.480469 40.585938 L 335.609375 130.449219 L 335.609375 144.769531 L 39.351562 144.769531 Z M 88.234375 154.644531 L 88.234375 165.015625 L 67.003906 165.015625 L 67.003906 154.644531 Z M 71.941406 174.890625 L 82.804688 174.890625 L 82.804688 271.667969 L 71.941406 271.667969 Z M 88.234375 281.046875 L 88.234375 291.417969 L 67.003906 291.417969 L 67.003906 281.046875 Z M 93.171875 271.171875 L 92.679688 174.394531 L 93.171875 174.394531 C 96.132812 174.394531 98.109375 172.421875 98.109375 169.457031 L 98.109375 154.152344 L 111.933594 154.152344 L 111.933594 169.457031 C 111.933594 172.421875 113.910156 174.394531 116.871094 174.394531 L 117.367188 174.394531 L 117.367188 271.171875 L 116.871094 271.171875 C 113.910156 271.171875 111.933594 273.148438 111.933594 276.109375 L 111.933594 291.417969 L 98.109375 291.417969 L 98.109375 276.109375 C 98.109375 273.640625 96.132812 271.171875 93.171875 271.171875 Z M 51.695312 301.292969 L 323.265625 301.292969 L 323.265625 313.636719 L 51.695312 313.636719 Z M 335.609375 335.855469 L 39.351562 335.855469 L 39.351562 323.511719 L 335.609375 323.511719 Z M 335.609375 335.855469 " fill-opacity="1" fill-rule="nonzero"/></g><path fill="#010101" d="M 142.054688 129.464844 C 143.535156 127.488281 144.523438 125.511719 144.523438 123.042969 C 144.523438 121.070312 144.027344 119.09375 142.546875 117.613281 C 141.066406 116.132812 139.585938 115.144531 137.609375 114.652344 C 138.105469 114.15625 138.597656 114.15625 138.597656 114.15625 C 138.597656 114.15625 139.089844 113.664062 140.078125 113.167969 C 141.558594 111.6875 142.546875 109.710938 142.546875 107.242188 C 142.546875 105.269531 141.558594 102.800781 140.078125 101.320312 C 139.089844 100.332031 138.105469 99.835938 136.128906 98.851562 C 134.648438 98.355469 132.671875 97.863281 130.203125 97.863281 L 116.871094 97.863281 L 116.871094 131.933594 L 131.683594 131.933594 C 137.117188 132.425781 140.574219 131.4375 142.054688 129.464844 Z M 123.292969 103.789062 L 130.699219 103.789062 C 132.671875 103.789062 134.152344 104.28125 135.140625 104.773438 C 136.128906 105.269531 136.621094 106.75 136.621094 108.230469 C 136.621094 111.195312 134.648438 112.675781 130.203125 112.675781 L 122.796875 112.675781 L 122.796875 103.789062 Z M 123.292969 127.488281 L 123.292969 118.105469 L 131.683594 118.105469 C 136.621094 118.105469 139.089844 119.589844 139.089844 122.550781 C 139.089844 124.527344 138.597656 125.511719 137.609375 126.5 C 136.621094 126.996094 134.648438 127.488281 132.671875 127.488281 Z M 123.292969 127.488281 " fill-opacity="1" fill-rule="nonzero"/><path fill="#010101" d="M 156.375 125.019531 L 173.65625 125.019531 L 177.109375 132.917969 L 183.035156 132.917969 L 168.222656 98.851562 L 162.296875 98.851562 L 147.484375 132.917969 L 153.410156 132.917969 Z M 164.765625 105.269531 L 171.1875 119.09375 L 158.84375 119.09375 Z M 164.765625 105.269531 " fill-opacity="1" fill-rule="nonzero"/><path fill="#010101" d="M 193.40625 107.738281 L 212.660156 132.425781 L 219.082031 132.425781 L 219.082031 98.355469 L 213.15625 98.355469 L 213.15625 124.03125 L 193.40625 98.355469 L 187.972656 98.355469 L 187.972656 132.425781 L 193.40625 132.425781 Z M 193.40625 107.738281 " fill-opacity="1" fill-rule="nonzero"/><path fill="#010101" d="M 234.386719 123.042969 L 239.324219 117.613281 L 250.679688 132.425781 L 257.59375 132.425781 L 243.769531 113.664062 L 257.101562 98.355469 L 250.1875 98.355469 L 234.386719 115.144531 L 234.386719 98.355469 L 228.460938 98.355469 L 228.460938 132.425781 L 234.386719 132.425781 Z M 234.386719 123.042969 " fill-opacity="1" fill-rule="nonzero"/></svg>