<svg xmlns="http://www.w3.org/2000/svg" xmlns:xlink="http://www.w3.org/1999/xlink" width="500" zoomAndPan="magnify" viewBox="0 0 375 374.999991" height="500" preserveAspectRatio="xMidYMid meet" version="1.0"><defs><clipPath id="a52ccf39ac"><path d="M 41.351562 50 L 322 50 L 322 300 L 41.351562 300 Z M 41.351562 50 " clip-rule="nonzero"/></clipPath><clipPath id="0d2ca0e473"><path d="M 41.351562 106 L 52 106 L 52 137 L 41.351562 137 Z M 41.351562 106 " clip-rule="nonzero"/></clipPath></defs><path fill="#000000" d="M 74.457031 114.226562 C 78.980469 116.757812 83.734375 118.738281 88.71875 120.175781 C 93.699219 121.609375 98.777344 122.460938 103.957031 122.726562 C 105.5 122.90625 107.035156 122.867188 108.566406 122.613281 C 110.101562 122.359375 111.566406 121.898438 112.96875 121.230469 C 114.371094 120.566406 115.65625 119.71875 116.820312 118.691406 C 117.984375 117.664062 118.988281 116.496094 119.824219 115.1875 L 129.285156 97.234375 C 130.964844 94.050781 132.582031 87.222656 124.554688 77.308594 C 118.4375 70.226562 111.199219 64.578125 102.84375 60.363281 C 94.644531 55.855469 85.894531 53.082031 76.597656 52.042969 C 63.875 51.027344 59.164062 56.210938 57.484375 59.402344 L 48.019531 77.351562 C 41.808594 89.140625 56.621094 104.820312 74.457031 114.226562 Z M 66.460938 64.132812 C 67.027344 63.0625 69.433594 62.0625 73.515625 62.0625 C 74.21875 62.0625 74.976562 62.09375 75.785156 62.15625 C 83.695312 63.109375 91.132812 65.507812 98.105469 69.355469 C 105.226562 72.9375 111.414062 77.722656 116.667969 83.710938 C 120.113281 87.96875 120.964844 91.261719 120.300781 92.523438 C 119.636719 93.785156 116.429688 94.941406 110.980469 94.503906 C 103.074219 93.550781 95.636719 91.148438 88.660156 87.304688 C 81.542969 83.71875 75.351562 78.933594 70.09375 72.941406 C 66.628906 68.667969 65.773438 65.433594 66.460938 64.132812 Z M 56.996094 82.082031 L 60.039062 76.316406 C 60.714844 77.355469 61.441406 78.363281 62.21875 79.328125 C 68.335938 86.414062 75.570312 92.0625 83.929688 96.277344 C 92.125 100.789062 100.875 103.570312 110.175781 104.613281 C 111.285156 104.703125 112.335938 104.742188 113.324219 104.742188 C 113.527344 104.742188 113.691406 104.742188 113.886719 104.714844 L 110.84375 110.472656 C 109.179688 113.636719 95.890625 114.058594 79.191406 105.25 C 62.492188 96.445312 55.328125 85.25 56.996094 82.082031 Z M 56.996094 82.082031 " fill-opacity="1" fill-rule="nonzero"/><path fill="#000000" d="M 272.253906 284.253906 C 259.882812 287.375 257.082031 293.804688 256.53125 297.363281 L 253.328125 317.398438 C 252.761719 320.949219 253.414062 327.941406 264.195312 334.753906 C 272.261719 339.5 280.933594 342.53125 290.203125 343.839844 C 294.597656 344.542969 299.019531 344.902344 303.46875 344.914062 C 318.621094 344.914062 331.835938 340.425781 333.464844 330.203125 L 336.664062 310.164062 C 337.230469 306.613281 336.574219 299.621094 325.789062 292.8125 C 321.757812 290.539062 317.558594 288.640625 313.191406 287.113281 C 308.824219 285.589844 304.359375 284.460938 299.789062 283.730469 C 295.222656 283 290.625 282.679688 286 282.769531 C 281.375 282.859375 276.792969 283.355469 272.253906 284.257812 Z M 323.449219 328.601562 C 322.886719 332.152344 310.433594 336.789062 291.789062 333.820312 C 283.910156 332.703125 276.519531 330.15625 269.628906 326.175781 C 264.976562 323.238281 263.128906 320.453125 263.363281 319.003906 L 264.378906 312.558594 C 265.355469 313.332031 266.367188 314.050781 267.421875 314.714844 C 275.488281 319.460938 284.15625 322.488281 293.421875 323.796875 C 297.820312 324.507812 302.246094 324.867188 306.699219 324.875 C 312.789062 324.976562 318.722656 324.074219 324.503906 322.164062 Z M 326.644531 308.558594 C 326.082031 312.109375 313.632812 316.765625 294.992188 313.78125 C 287.101562 312.671875 279.707031 310.125 272.808594 306.136719 C 268.175781 303.214844 266.308594 300.371094 266.53125 298.964844 C 266.757812 297.558594 269.394531 295.414062 274.730469 294.09375 C 278.632812 293.183594 282.589844 292.753906 286.597656 292.800781 C 290.484375 292.8125 294.351562 293.125 298.191406 293.746094 C 306.074219 294.855469 313.464844 297.398438 320.355469 301.386719 C 325.027344 304.332031 326.878906 307.105469 326.644531 308.558594 Z M 326.644531 308.558594 " fill-opacity="1" fill-rule="nonzero"/><path fill="#000000" d="M 225.496094 277.628906 C 220.054688 265.453125 198.574219 267.4375 180.167969 275.660156 C 161.765625 283.882812 145.957031 298.578125 151.390625 310.738281 L 159.671875 329.269531 C 161.109375 332.5 165.355469 337.859375 177.605469 337.859375 L 178.257812 337.859375 C 187.605469 337.429688 196.519531 335.230469 204.996094 331.261719 C 223.410156 323.039062 239.207031 308.351562 233.773438 296.183594 L 229.140625 298.25 L 233.773438 296.179688 Z M 160.675781 306.605469 C 159.214844 303.339844 167.085938 292.625 184.324219 284.921875 C 191.707031 281.410156 199.484375 279.5 207.660156 279.203125 C 212.488281 279.203125 215.601562 280.28125 216.28125 281.769531 C 217.738281 285.035156 209.863281 295.742188 192.632812 303.445312 C 175.402344 311.144531 162.136719 309.867188 160.675781 306.605469 Z M 200.882812 321.976562 C 193.664062 325.363281 186.078125 327.273438 178.121094 327.707031 C 172.609375 327.804688 169.535156 326.429688 168.953125 325.128906 L 166.324219 319.257812 C 167.265625 319.332031 168.226562 319.371094 169.210938 319.371094 C 178.839844 319.023438 188.015625 316.800781 196.738281 312.710938 C 201.59375 310.695312 206.148438 308.144531 210.402344 305.054688 C 214.652344 301.960938 218.488281 298.421875 221.90625 294.425781 L 224.53125 300.300781 C 226 303.566406 218.113281 314.273438 200.882812 321.976562 Z M 200.882812 321.976562 " fill-opacity="1" fill-rule="nonzero"/><g clip-path="url(#a52ccf39ac)"><path fill="#000000" d="M 41.636719 159.351562 L 81.636719 274.335938 C 81.746094 274.652344 81.882812 274.953125 82.050781 275.238281 C 82.222656 275.527344 82.417969 275.792969 82.636719 276.042969 C 82.859375 276.292969 83.101562 276.515625 83.367188 276.71875 C 83.632812 276.917969 83.917969 277.089844 84.21875 277.238281 C 84.515625 277.382812 84.828125 277.496094 85.152344 277.578125 C 85.472656 277.664062 85.800781 277.714844 86.132812 277.734375 C 86.464844 277.753906 86.796875 277.742188 87.125 277.695312 C 87.457031 277.648438 87.777344 277.570312 88.09375 277.460938 L 96.097656 274.675781 L 111.90625 297.472656 C 112.289062 298.027344 112.761719 298.484375 113.328125 298.847656 C 113.890625 299.210938 114.503906 299.453125 115.167969 299.574219 C 115.464844 299.628906 115.765625 299.660156 116.070312 299.660156 C 117.128906 299.660156 118.09375 299.355469 118.960938 298.753906 L 211.589844 234.5 L 318.066406 197.46875 C 318.382812 197.359375 318.683594 197.21875 318.96875 197.050781 C 319.257812 196.882812 319.523438 196.6875 319.773438 196.464844 C 320.023438 196.246094 320.246094 196 320.449219 195.734375 C 320.648438 195.46875 320.820312 195.1875 320.96875 194.886719 C 321.113281 194.585938 321.226562 194.277344 321.308594 193.953125 C 321.394531 193.632812 321.445312 193.304688 321.464844 192.972656 C 321.484375 192.640625 321.472656 192.308594 321.425781 191.976562 C 321.378906 191.648438 321.300781 191.324219 321.191406 191.011719 L 281.1875 76.011719 C 281.078125 75.695312 280.941406 75.394531 280.769531 75.109375 C 280.601562 74.820312 280.40625 74.554688 280.1875 74.304688 C 279.964844 74.054688 279.722656 73.832031 279.453125 73.628906 C 279.1875 73.429688 278.90625 73.257812 278.605469 73.113281 C 278.308594 72.96875 277.996094 72.851562 277.671875 72.769531 C 277.351562 72.683594 277.023438 72.632812 276.691406 72.613281 C 276.359375 72.59375 276.027344 72.609375 275.699219 72.652344 C 275.367188 72.699219 275.046875 72.777344 274.730469 72.886719 L 266.730469 75.671875 L 250.925781 52.875 C 250.734375 52.601562 250.519531 52.347656 250.28125 52.117188 C 250.039062 51.886719 249.78125 51.679688 249.5 51.5 C 249.21875 51.320312 248.925781 51.167969 248.613281 51.046875 C 248.304688 50.921875 247.984375 50.832031 247.660156 50.773438 C 247.332031 50.714844 247 50.6875 246.667969 50.691406 C 246.332031 50.699219 246.003906 50.734375 245.679688 50.808594 C 245.351562 50.878906 245.039062 50.980469 244.730469 51.113281 C 244.425781 51.246094 244.136719 51.40625 243.863281 51.597656 L 151.234375 115.851562 L 44.757812 152.882812 C 44.441406 152.996094 44.140625 153.132812 43.851562 153.300781 C 43.566406 153.472656 43.296875 153.667969 43.046875 153.890625 C 42.800781 154.109375 42.574219 154.355469 42.375 154.621094 C 42.171875 154.886719 42 155.171875 41.855469 155.472656 C 41.710938 155.773438 41.597656 156.082031 41.511719 156.40625 C 41.429688 156.730469 41.378906 157.058594 41.359375 157.390625 C 41.339844 157.722656 41.355469 158.054688 41.402344 158.386719 C 41.449219 158.714844 41.527344 159.039062 41.636719 159.351562 Z M 117.347656 287.527344 L 106.046875 271.21875 L 175.882812 246.921875 Z M 245.476562 62.828125 L 256.78125 79.132812 L 186.941406 103.449219 Z M 273.273438 84.132812 L 309.945312 189.539062 L 89.542969 266.214844 L 52.882812 160.808594 Z M 273.273438 84.132812 " fill-opacity="1" fill-rule="nonzero"/></g><path fill="#000000" d="M 98.929688 251.914062 C 99.5 251.914062 100.054688 251.820312 100.59375 251.632812 L 292.238281 184.960938 C 292.550781 184.851562 292.851562 184.710938 293.140625 184.542969 C 293.425781 184.375 293.695312 184.179688 293.945312 183.957031 C 294.191406 183.734375 294.417969 183.492188 294.617188 183.226562 C 294.820312 182.960938 294.992188 182.679688 295.136719 182.378906 C 295.28125 182.078125 295.394531 181.765625 295.480469 181.445312 C 295.5625 181.121094 295.617188 180.796875 295.632812 180.460938 C 295.652344 180.128906 295.640625 179.796875 295.59375 179.46875 C 295.546875 179.140625 295.472656 178.816406 295.363281 178.503906 L 268.6875 101.84375 C 268.578125 101.527344 268.441406 101.226562 268.269531 100.941406 C 268.101562 100.652344 267.90625 100.386719 267.683594 100.136719 C 267.464844 99.886719 267.21875 99.664062 266.953125 99.464844 C 266.6875 99.261719 266.40625 99.089844 266.105469 98.945312 C 265.804688 98.800781 265.496094 98.6875 265.171875 98.601562 C 264.851562 98.519531 264.523438 98.46875 264.191406 98.449219 C 263.859375 98.429688 263.527344 98.441406 263.199219 98.488281 C 262.867188 98.535156 262.546875 98.613281 262.230469 98.722656 L 70.59375 165.394531 C 70.277344 165.503906 69.976562 165.640625 69.6875 165.8125 C 69.402344 165.980469 69.132812 166.175781 68.886719 166.394531 C 68.636719 166.617188 68.410156 166.863281 68.210938 167.128906 C 68.011719 167.394531 67.835938 167.675781 67.691406 167.976562 C 67.546875 168.277344 67.433594 168.585938 67.347656 168.910156 C 67.265625 169.230469 67.214844 169.558594 67.195312 169.890625 C 67.175781 170.222656 67.1875 170.554688 67.234375 170.886719 C 67.28125 171.214844 67.359375 171.535156 67.46875 171.851562 L 94.136719 248.53125 C 94.308594 249.027344 94.554688 249.484375 94.875 249.902344 C 95.191406 250.324219 95.5625 250.683594 95.992188 250.988281 C 96.421875 251.289062 96.886719 251.519531 97.386719 251.679688 C 97.890625 251.835938 98.402344 251.917969 98.929688 251.914062 Z M 260.777344 109.96875 L 284.109375 177.046875 L 102.046875 240.386719 L 78.714844 173.308594 Z M 260.777344 109.96875 " fill-opacity="1" fill-rule="nonzero"/><path fill="#000000" d="M 181.4375 200.542969 C 182.328125 200.542969 183.214844 200.496094 184.097656 200.402344 C 184.984375 200.308594 185.859375 200.167969 186.730469 199.980469 C 187.601562 199.792969 188.457031 199.5625 189.304688 199.285156 C 190.148438 199.007812 190.976562 198.6875 191.789062 198.324219 C 192.601562 197.960938 193.390625 197.554688 194.160156 197.109375 C 194.929688 196.660156 195.671875 196.175781 196.390625 195.648438 C 197.109375 195.125 197.796875 194.5625 198.457031 193.964844 C 199.117188 193.367188 199.742188 192.738281 200.335938 192.074219 C 200.925781 191.410156 201.484375 190.714844 202.003906 189.996094 C 202.523438 189.273438 203.003906 188.523438 203.445312 187.753906 C 203.882812 186.980469 204.285156 186.1875 204.640625 185.371094 C 205 184.558594 205.3125 183.726562 205.582031 182.878906 C 205.851562 182.03125 206.078125 181.171875 206.257812 180.300781 C 206.4375 179.429688 206.570312 178.550781 206.65625 177.664062 C 206.746094 176.78125 206.785156 175.890625 206.777344 175.003906 C 206.773438 174.113281 206.71875 173.226562 206.621094 172.339844 C 206.519531 171.457031 206.375 170.582031 206.183594 169.710938 C 205.992188 168.84375 205.753906 167.988281 205.472656 167.144531 C 205.191406 166.300781 204.867188 165.472656 204.496094 164.664062 C 204.128906 163.855469 203.71875 163.066406 203.265625 162.300781 C 202.8125 161.535156 202.324219 160.792969 201.792969 160.078125 C 201.265625 159.363281 200.699219 158.679688 200.097656 158.023438 C 199.496094 157.367188 198.859375 156.746094 198.191406 156.15625 C 197.527344 155.570312 196.828125 155.015625 196.105469 154.5 C 195.378906 153.988281 194.628906 153.511719 193.855469 153.074219 C 193.078125 152.636719 192.28125 152.242188 191.464844 151.890625 C 190.648438 151.539062 189.816406 151.230469 188.964844 150.964844 C 188.117188 150.699219 187.257812 150.480469 186.382812 150.308594 C 185.511719 150.132812 184.632812 150.003906 183.746094 149.921875 C 182.859375 149.839844 181.972656 149.804688 181.082031 149.816406 C 180.195312 149.828125 179.308594 149.886719 178.421875 149.992188 C 177.539062 150.097656 176.664062 150.25 175.796875 150.445312 C 174.929688 150.644531 174.074219 150.882812 173.234375 151.171875 C 172.390625 151.457031 171.566406 151.789062 170.757812 152.164062 C 169.953125 152.535156 169.164062 152.953125 168.402344 153.40625 C 167.636719 153.863281 166.902344 154.359375 166.191406 154.894531 C 165.476562 155.429688 164.796875 155.996094 164.144531 156.605469 C 163.492188 157.210938 162.875 157.847656 162.292969 158.519531 C 161.707031 159.1875 161.160156 159.890625 160.648438 160.617188 C 160.136719 161.34375 159.667969 162.097656 159.234375 162.875 C 158.804688 163.65625 158.414062 164.453125 158.066406 165.273438 C 157.71875 166.089844 157.414062 166.925781 157.15625 167.777344 C 156.894531 168.628906 156.683594 169.488281 156.511719 170.363281 C 156.34375 171.238281 156.222656 172.117188 156.144531 173.003906 C 156.070312 173.890625 156.039062 174.777344 156.054688 175.667969 C 156.074219 176.554688 156.136719 177.441406 156.246094 178.324219 C 156.359375 179.207031 156.515625 180.082031 156.714844 180.949219 C 156.917969 181.816406 157.167969 182.667969 157.457031 183.507812 C 157.886719 184.746094 158.40625 185.945312 159.019531 187.105469 C 159.636719 188.261719 160.335938 189.363281 161.121094 190.414062 C 161.90625 191.464844 162.769531 192.445312 163.707031 193.359375 C 164.644531 194.273438 165.648438 195.113281 166.714844 195.871094 C 167.785156 196.628906 168.90625 197.300781 170.078125 197.886719 C 171.25 198.472656 172.460938 198.960938 173.710938 199.359375 C 174.960938 199.753906 176.234375 200.050781 177.527344 200.25 C 178.824219 200.449219 180.125 200.546875 181.4375 200.542969 Z M 176.414062 160.804688 C 177.359375 160.476562 178.324219 160.242188 179.316406 160.105469 C 180.304688 159.964844 181.296875 159.925781 182.296875 159.984375 C 183.292969 160.042969 184.277344 160.195312 185.242188 160.449219 C 186.210938 160.699219 187.144531 161.042969 188.042969 161.476562 C 188.941406 161.914062 189.792969 162.433594 190.589844 163.035156 C 191.386719 163.636719 192.117188 164.3125 192.78125 165.058594 C 193.445312 165.804688 194.03125 166.609375 194.535156 167.46875 C 195.042969 168.332031 195.460938 169.234375 195.789062 170.175781 C 196.117188 171.121094 196.347656 172.089844 196.488281 173.078125 C 196.625 174.066406 196.664062 175.0625 196.605469 176.058594 C 196.550781 177.054688 196.394531 178.039062 196.144531 179.003906 C 195.890625 179.972656 195.546875 180.90625 195.113281 181.804688 C 194.679688 182.707031 194.160156 183.554688 193.558594 184.351562 C 192.953125 185.148438 192.28125 185.878906 191.535156 186.542969 C 190.789062 187.207031 189.984375 187.792969 189.121094 188.300781 C 188.261719 188.804688 187.359375 189.222656 186.414062 189.550781 C 185.46875 189.878906 184.503906 190.113281 183.511719 190.25 C 182.523438 190.386719 181.53125 190.425781 180.53125 190.371094 C 179.535156 190.3125 178.550781 190.15625 177.585938 189.90625 C 176.617188 189.652344 175.683594 189.3125 174.785156 188.875 C 173.886719 188.441406 173.039062 187.921875 172.242188 187.320312 C 171.441406 186.71875 170.710938 186.042969 170.046875 185.296875 C 169.382812 184.550781 168.796875 183.746094 168.292969 182.882812 C 167.785156 182.023438 167.367188 181.121094 167.039062 180.175781 C 166.703125 179.234375 166.464844 178.265625 166.320312 177.273438 C 166.175781 176.285156 166.128906 175.289062 166.183594 174.289062 C 166.238281 173.289062 166.390625 172.300781 166.640625 171.332031 C 166.890625 170.363281 167.234375 169.425781 167.667969 168.527344 C 168.105469 167.625 168.625 166.773438 169.230469 165.976562 C 169.835938 165.179688 170.515625 164.449219 171.265625 163.785156 C 172.015625 163.121094 172.824219 162.539062 173.691406 162.039062 C 174.558594 161.535156 175.464844 161.125 176.414062 160.804688 Z M 176.414062 160.804688 " fill-opacity="1" fill-rule="nonzero"/><path fill="#000000" d="M 269.628906 228.242188 L 279.773438 228.242188 L 279.773438 253.605469 L 269.628906 253.605469 Z M 269.628906 228.242188 " fill-opacity="1" fill-rule="nonzero"/><path fill="#000000" d="M 289.917969 218.09375 L 300.0625 218.09375 L 300.0625 263.75 L 289.917969 263.75 Z M 289.917969 218.09375 " fill-opacity="1" fill-rule="nonzero"/><g clip-path="url(#0d2ca0e473)"><path fill="#000000" d="M 41.351562 106.492188 L 51.5 106.492188 L 51.5 136.929688 L 41.351562 136.929688 Z M 41.351562 106.492188 " fill-opacity="1" fill-rule="nonzero"/></g><path fill="#000000" d="M 61.644531 121.710938 L 71.789062 121.710938 L 71.789062 131.859375 L 61.644531 131.859375 Z M 61.644531 121.710938 " fill-opacity="1" fill-rule="nonzero"/></svg>