<svg xmlns="http://www.w3.org/2000/svg" xmlns:xlink="http://www.w3.org/1999/xlink" width="500" zoomAndPan="magnify" viewBox="0 0 375 374.999991" height="500" preserveAspectRatio="xMidYMid meet" version="1.0"><defs><clipPath id="1677025647"><path d="M 18.617188 76.296875 L 356.40625 76.296875 L 356.40625 299.027344 L 18.617188 299.027344 Z M 18.617188 76.296875 " clip-rule="nonzero"/></clipPath></defs><g clip-path="url(#1677025647)"><path fill="#1a1a1a" d="M 46.667969 76.292969 L 328.351562 76.292969 C 335.8125 76.292969 342.902344 79.261719 348.171875 84.539062 C 353.445312 89.820312 356.40625 96.921875 356.40625 104.390625 L 356.40625 270.929688 C 356.40625 278.398438 353.445312 285.5 348.171875 290.78125 C 342.902344 296.058594 335.8125 299.027344 328.351562 299.027344 L 46.667969 299.027344 C 39.210938 299.027344 32.121094 296.058594 26.851562 290.78125 C 21.578125 285.5 18.617188 278.398438 18.617188 270.929688 L 18.617188 104.390625 C 18.617188 96.921875 21.578125 89.820312 26.851562 84.539062 C 32.121094 79.261719 39.210938 76.292969 46.667969 76.292969 Z M 328.351562 91.90625 L 46.667969 91.90625 C 43.351562 91.90625 40.214844 93.234375 37.871094 95.582031 C 35.53125 97.925781 34.207031 101.070312 34.207031 104.390625 L 34.207031 270.929688 C 34.207031 274.25 35.53125 277.394531 37.871094 279.738281 C 40.214844 282.082031 43.351562 283.414062 46.667969 283.414062 L 328.351562 283.414062 C 331.671875 283.414062 334.808594 282.082031 337.152344 279.738281 C 339.492188 277.394531 340.820312 274.25 340.820312 270.929688 L 340.820312 104.390625 C 340.820312 101.070312 339.492188 97.925781 337.152344 95.582031 C 334.808594 93.234375 331.671875 91.90625 328.351562 91.90625 " fill-opacity="1" fill-rule="evenodd"/></g><path fill="#1a1a1a" d="M 353.808594 125.191406 L 353.808594 166.28125 L 21.214844 166.28125 L 21.214844 119.988281 L 353.808594 119.988281 L 353.808594 125.191406 " fill-opacity="1" fill-rule="nonzero"/><path fill="#1a1a1a" d="M 76.808594 198.066406 C 80.578125 198.066406 84.207031 198.742188 87.574219 199.988281 C 87.871094 200.097656 88.167969 200.210938 88.457031 200.328125 C 87.179688 201.308594 85.957031 202.375 84.804688 203.53125 C 77.964844 210.382812 74.148438 219.605469 74.148438 229.296875 C 74.148438 238.988281 77.964844 248.207031 84.804688 255.058594 C 85.957031 256.214844 87.179688 257.285156 88.457031 258.265625 C 88.167969 258.382812 87.871094 258.492188 87.574219 258.605469 C 84.207031 259.847656 80.578125 260.527344 76.808594 260.527344 C 68.195312 260.527344 60.402344 257.03125 54.761719 251.378906 C 49.113281 245.726562 45.625 237.921875 45.625 229.296875 C 45.625 220.671875 49.113281 212.863281 54.761719 207.210938 C 60.402344 201.5625 68.195312 198.066406 76.808594 198.066406 " fill-opacity="1" fill-rule="nonzero"/><path fill="#1a1a1a" d="M 88.476562 207.210938 C 94.121094 201.5625 101.917969 198.066406 110.527344 198.066406 C 119.136719 198.066406 126.933594 201.5625 132.574219 207.210938 C 138.214844 212.863281 141.710938 220.671875 141.710938 229.296875 C 141.710938 237.921875 138.214844 245.726562 132.574219 251.378906 C 126.933594 257.03125 119.136719 260.527344 110.527344 260.527344 C 101.917969 260.527344 94.121094 257.03125 88.476562 251.378906 C 82.835938 245.726562 79.347656 237.917969 79.347656 229.296875 C 79.347656 220.671875 82.835938 212.863281 88.476562 207.210938 " fill-opacity="1" fill-rule="nonzero"/><path fill="#1a1a1a" d="M 170.308594 221.488281 L 203.605469 221.488281 C 207.65625 221.488281 210.941406 224.988281 210.941406 229.296875 C 210.941406 233.609375 207.65625 237.105469 203.605469 237.105469 L 170.308594 237.105469 C 166.257812 237.105469 162.96875 233.609375 162.96875 229.296875 C 162.96875 224.988281 166.257812 221.488281 170.308594 221.488281 Z M 228.300781 221.488281 L 261.59375 221.488281 C 265.644531 221.488281 268.933594 224.988281 268.933594 229.296875 C 268.933594 233.609375 265.644531 237.105469 261.59375 237.105469 L 228.300781 237.105469 C 224.246094 237.105469 220.960938 233.609375 220.960938 229.296875 C 220.960938 224.988281 224.246094 221.488281 228.300781 221.488281 Z M 286.292969 221.488281 L 319.582031 221.488281 C 323.640625 221.488281 326.925781 224.988281 326.925781 229.296875 C 326.925781 233.609375 323.640625 237.105469 319.582031 237.105469 L 286.292969 237.105469 C 282.238281 237.105469 278.949219 233.609375 278.949219 229.296875 C 278.949219 224.988281 282.238281 221.488281 286.292969 221.488281 " fill-opacity="1" fill-rule="evenodd"/></svg>