<svg xmlns="http://www.w3.org/2000/svg" xmlns:xlink="http://www.w3.org/1999/xlink" width="500" zoomAndPan="magnify" viewBox="0 0 375 374.999991" height="500" preserveAspectRatio="xMidYMid meet" version="1.0"><defs><clipPath id="dc8886628c"><path d="M 32.082031 32.082031 L 342.582031 32.082031 L 342.582031 342.582031 L 32.082031 342.582031 Z M 32.082031 32.082031 " clip-rule="nonzero"/></clipPath></defs><g clip-path="url(#dc8886628c)"><path fill="#000000" d="M 342.421875 156.675781 C 342.421875 142.160156 330.796875 129.421875 314.824219 126.4375 C 309.960938 125.25 295.828125 125.9375 290.65625 125.765625 L 261.070312 65.691406 C 260.382812 64.292969 258.753906 63.644531 257.296875 64.160156 L 87.167969 125.765625 L 67.136719 125.765625 C 48.351562 125.554688 31.996094 139.574219 32.226562 156.675781 C 32.226562 156.675781 32.226562 311.597656 32.226562 311.597656 C 32.226562 328.679688 47.890625 342.582031 67.136719 342.582031 L 307.585938 342.582031 C 326.8125 342.582031 342.441406 328.679688 342.441406 311.597656 C 342.441406 265.847656 342.441406 202.425781 342.441406 156.675781 Z M 256.800781 70.84375 L 283.839844 125.765625 L 105.09375 125.765625 Z M 336.3125 201.351562 L 276.523438 201.351562 C 259.460938 201.199219 245.710938 215.542969 245.847656 232.085938 C 244.046875 250.414062 257.929688 267.054688 276.523438 266.921875 C 276.523438 266.921875 336.3125 266.921875 336.3125 266.921875 L 336.3125 311.597656 C 336.3125 325.308594 323.40625 336.476562 307.566406 336.476562 L 67.117188 336.476562 C 51.242188 336.476562 38.316406 325.308594 38.316406 311.597656 L 38.316406 156.675781 C 38.316406 143.863281 49.480469 133.253906 64.265625 131.988281 C 65.203125 131.914062 66.140625 131.875 67.097656 131.875 L 87.667969 131.875 C 101.453125 132.277344 307.472656 131.03125 313.65625 132.429688 C 326.773438 134.882812 336.292969 145.089844 336.292969 156.675781 L 336.292969 201.351562 Z M 336.3125 207.5 L 336.3125 260.8125 L 276.523438 260.8125 C 263.0625 260.8125 251.976562 249.859375 251.976562 236.261719 C 250.421875 221.113281 260.859375 207.519531 276.523438 207.5 Z M 269.058594 234.15625 C 269.804688 257.730469 303.988281 257.730469 304.734375 234.15625 C 303.988281 210.582031 269.804688 210.582031 269.058594 234.15625 Z M 298.625 234.15625 C 298.222656 249.628906 275.566406 249.609375 275.164062 234.15625 C 275.566406 218.683594 298.222656 218.703125 298.625 234.15625 Z M 112.007812 275.671875 L 75.984375 275.671875 C 70.203125 275.671875 65.492188 280.382812 65.492188 286.167969 L 65.492188 306.867188 C 65.492188 312.652344 70.203125 317.363281 75.984375 317.363281 L 112.007812 317.363281 C 117.789062 317.363281 122.5 312.652344 122.5 306.867188 L 122.5 286.167969 C 122.5 280.382812 117.789062 275.671875 112.007812 275.671875 Z M 116.390625 306.867188 C 116.390625 309.28125 114.417969 311.253906 112.007812 311.253906 L 75.984375 311.253906 C 73.574219 311.253906 71.601562 309.28125 71.601562 306.867188 L 71.601562 286.167969 C 71.601562 283.753906 73.574219 281.78125 75.984375 281.78125 L 112.007812 281.78125 C 114.417969 281.78125 116.390625 283.753906 116.390625 286.167969 Z M 259.042969 100.621094 C 257.296875 96.542969 256.035156 88.441406 251.226562 86.679688 C 246.84375 84.074219 239.71875 88.195312 235.488281 89.4375 C 230.792969 90.988281 228.152344 96.5625 229.914062 101.15625 L 233.015625 109.890625 C 234.355469 113.644531 237.898438 116 241.671875 116 C 243.894531 116.265625 251.285156 112.953125 253.46875 112.359375 C 258.140625 110.808594 260.785156 105.257812 259.042969 100.640625 Z M 253.160156 105.007812 C 252.816406 105.753906 252.183594 106.308594 251.417969 106.578125 L 242.6875 109.679688 C 241.058594 110.253906 239.335938 109.410156 238.761719 107.824219 L 235.660156 99.089844 C 235.390625 98.324219 235.429688 97.480469 235.773438 96.753906 C 236.117188 96.007812 236.75 95.453125 237.515625 95.183594 L 246.25 92.082031 C 247.015625 91.792969 247.859375 91.851562 248.605469 92.195312 C 249.351562 92.539062 249.90625 93.171875 250.175781 93.9375 L 253.277344 102.671875 C 253.5625 103.4375 253.507812 104.28125 253.160156 105.027344 Z M 308.640625 76.914062 C 307.605469 75.859375 303.757812 72.507812 297.953125 72.507812 C 292.363281 72.585938 288.667969 75.898438 287.671875 76.914062 C 286.484375 78.121094 284.550781 78.140625 283.34375 76.953125 C 279.246094 72.585938 290.449219 66.285156 298.144531 66.402344 C 306.496094 66.4375 316.949219 72.835938 312.949219 76.953125 C 311.742188 78.140625 309.808594 78.121094 308.621094 76.914062 Z M 317.945312 62.109375 C 316.128906 60.136719 308.371094 53.53125 297.78125 53.78125 C 287.230469 53.933594 280.257812 60.195312 278.382812 62.109375 C 277.195312 63.316406 275.261719 63.335938 274.054688 62.148438 C 269.09375 57.457031 286.636719 47.328125 297.6875 47.671875 C 310 47.347656 327.214844 57.628906 322.253906 62.148438 C 321.050781 63.335938 319.132812 63.316406 317.929688 62.109375 Z M 260.804688 47.804688 C 264.347656 44.1875 277.464844 32.371094 297.4375 32.082031 C 318.273438 31.699219 331.851562 44.050781 335.527344 47.804688 C 338.324219 50.679688 333.957031 54.929688 331.160156 52.09375 C 313.523438 33.863281 283.074219 33.617188 265.148438 52.09375 C 264.554688 52.707031 263.769531 53.015625 262.96875 53.015625 C 260.363281 53.109375 258.867188 49.644531 260.785156 47.824219 Z M 298.164062 82.121094 C 283.78125 82.503906 283.78125 103.570312 298.164062 103.933594 C 312.546875 103.550781 312.546875 82.488281 298.164062 82.121094 Z M 298.164062 97.824219 C 291.863281 97.710938 291.863281 88.328125 298.164062 88.230469 C 304.464844 88.347656 304.464844 97.730469 298.164062 97.824219 Z M 298.164062 97.824219 " fill-opacity="1" fill-rule="nonzero"/></g></svg>